# xmcd
#
# Track frame offsets:
#	150
#	18652
#	32572
#	53185
#	65430
#	77937
#	87445
#	103377
#	126057
#	140217
#	153287
#	165647
#	180930
#	191022
#
# Disc length: 2687 seconds
#
# Revision: 2
# Processed by: cddbd v1.5.2PL0 Copyright (c) Steve Scherf et al.
# Submitted via: audiograbber 1.83.01
#
DISCID=bf0a7d0e
DTITLE=Eddie Coffey and Marty Delaney - Jack of all Trades
DYEAR=1996
DGENRE=Country
TTITLE0=Eddie Coffey and Marty Delaney - Jack of all Trades
TTITLE1=Eddie Coffey and Marty Delaney - Tribute to Brian Tobin
TTITLE2=Eddie Coffey and Marty Delaney - Saltwater Blues
TTITLE3=Eddie Coffey and Marty Delaney - Ocean Ranger
TTITLE4=Eddie Coffey and Marty Delaney - In and Out
TTITLE5=Eddie Coffey and Marty Delaney - Newfie Rock Jig
TTITLE6=Eddie Coffey and Marty Delaney - Police Cars and Guns
TTITLE7=Eddie Coffey and Marty Delaney - Grey Foggy Day
TTITLE8=Eddie Coffey and Marty Delaney - Old St John's
TTITLE9=Eddie Coffey and Marty Delaney - Cape Breton Rose
TTITLE10=Eddie Coffey and Marty Delaney - Queen of Broken Hearts
TTITLE11=Eddie Coffey and Marty Delaney - Newfoundland Waltz
TTITLE12=Eddie Coffey and Marty Delaney - Over the Hill
TTITLE13=Eddie Coffey and Marty Delaney - Mussels in the Corner
EXTD=YEAR: 1996 ID3G: 2
EXTT0=
EXTT1=
EXTT2=
EXTT3=
EXTT4=
EXTT5=
EXTT6=
EXTT7=
EXTT8=
EXTT9=
EXTT10=
EXTT11=
EXTT12=
EXTT13=
PLAYORDER=
